<?xml version="1.0" encoding="UTF-8"?>
<svg width="44px" height="28px" viewBox="0 0 44 28" version="1.1" xmlns="http://www.w3.org/2000/svg" xmlns:xlink="http://www.w3.org/1999/xlink">
    <title>brand-apple-pay</title>
    <g id="brand-apple-pay" stroke="none" stroke-width="1" fill="none" fill-rule="evenodd">
        <g id="card-visa" fill-rule="nonzero">
            <rect id="base" fill="#FFFFFF" x="0" y="0" width="44" height="28"></rect>
            <g id="Apple_Pay_logo-Copy" transform="translate(4.000000, 6.000000)" fill="#000000">
                <path d="M6.70694278,1.99833492 C6.27674097,2.52188392 5.58841806,2.93482398 4.90009516,2.87583254 C4.8140548,2.1679353 5.15104622,1.41579448 5.54539788,0.951236917 C5.9755997,0.412940057 6.72845287,0.0294957184 7.33790544,0 C7.40960574,0.737392959 7.12997456,1.46003806 6.70694278,1.99833492 L6.70694278,1.99833492 Z M7.33073541,3.0159372 C6.33410121,2.95694577 5.48086761,3.59847764 5.00764562,3.59847764 C4.52725359,3.59847764 3.80308054,3.04543292 3.01437722,3.06018078 C1.9890629,3.07492864 1.03544888,3.67221694 0.512036671,4.62345385 C-0.563467861,6.52592769 0.232405493,9.34276879 1.27205987,10.891294 C1.78113202,11.6581827 2.39058459,12.4988107 3.19362797,12.4693149 C3.95365118,12.4398192 4.25479244,11.9605138 5.17255631,11.9605138 C6.09749021,11.9605138 6.36278133,12.4693149 7.16582471,12.4545671 C7.99754822,12.4398192 8.52096042,11.6876784 9.03003257,10.9207897 C9.61080502,10.050666 9.84741601,9.20266413 9.86175607,9.15842055 C9.84741601,9.14367269 8.25566931,8.51688868 8.24132925,6.6291627 C8.22698918,5.05114177 9.49608453,4.29900095 9.55344477,4.25475737 C8.83644175,3.16341579 7.71791704,3.04543292 7.33073541,3.0159372 L7.33073541,3.0159372 Z M13.0882697,0.877497621 L13.0882697,12.3734539 L14.823417,12.3734539 L14.823417,8.44314938 L17.2253771,8.44314938 C19.4194064,8.44314938 20.9609629,6.89462417 20.9609629,4.65294957 C20.9609629,2.41127498 19.4480865,0.877497621 17.2827373,0.877497621 L13.0882697,0.877497621 Z M14.823417,2.38177926 L16.8238554,2.38177926 C18.3295618,2.38177926 19.1899654,3.20765937 19.1899654,4.6603235 C19.1899654,6.11298763 18.3295618,6.94624167 16.8166854,6.94624167 L14.823417,6.94624167 L14.823417,2.38177926 L14.823417,2.38177926 Z M24.1301162,12.461941 C25.2199608,12.461941 26.2309351,11.8941484 26.689817,10.994529 L26.7256671,10.994529 L26.7256671,12.3734539 L28.3317539,12.3734539 L28.3317539,6.65128449 C28.3317539,4.99215033 27.0411485,3.92293054 25.0550501,3.92293054 C23.2123523,3.92293054 21.8500466,5.00689819 21.7998564,6.49643197 L23.362923,6.49643197 C23.4919835,5.78853473 24.1301162,5.32397716 25.0048599,5.32397716 C26.0660244,5.32397716 26.6611369,5.83277831 26.6611369,6.76926736 L26.6611369,7.40342531 L24.4957877,7.53615604 C22.4810093,7.66151284 21.3911647,8.50951475 21.3911647,9.98430067 C21.3911647,11.4738344 22.5168594,12.461941 24.1301162,12.461941 Z M24.5961682,11.097764 C23.6712343,11.097764 23.0832918,10.6405804 23.0832918,9.94005709 C23.0832918,9.21741199 23.6497242,8.797098 24.7323987,8.73073264 L26.6611369,8.60537583 L26.6611369,9.25428164 C26.6611369,10.3308754 25.7720531,11.097764 24.5961682,11.097764 Z M30.4755929,15.5 C32.1677201,15.5 32.9635934,14.8363463 33.6590864,12.8232636 L36.7063492,4.03353949 L34.9425218,4.03353949 L32.8990632,10.8249286 L32.863213,10.8249286 L30.8197544,4.03353949 L29.0057368,4.03353949 L31.9454491,12.4029496 L31.7877085,12.9117507 C31.5224174,13.7745005 31.0922155,14.1063273 30.3250223,14.1063273 C30.1887917,14.1063273 29.9235006,14.0915794 29.8159502,14.0768316 L29.8159502,15.4557564 C29.9163306,15.4852521 30.3465324,15.5 30.4755929,15.5 Z" id="XMLID_34_"></path>
            </g>
        </g>
    </g>
</svg>