<?xml version="1.0" encoding="UTF-8"?>
<svg width="44px" height="28px" viewBox="0 0 44 28" version="1.1" xmlns="http://www.w3.org/2000/svg" xmlns:xlink="http://www.w3.org/1999/xlink">
    <title>brand-amex</title>
    <g id="brand-amex" stroke="none" stroke-width="1" fill="none" fill-rule="evenodd">
        <g id="card-amex" transform="translate(0.166667, 0.000000)" fill-rule="nonzero">
            <rect id="base" fill="#016FD0" x="0" y="0" width="44" height="28"></rect>
            <g id="Group" transform="translate(5.000000, 8.000000)">
                <path d="M6.42399382,11.9399443 L6.42399382,6.77190708 L11.9250658,6.77190708 L12.5152712,7.53724549 L13.1249931,6.77190708 L33.0925263,6.77190708 L33.0925263,11.5835296 C33.0925263,11.5835296 32.57034,11.9347766 31.9664074,11.9399443 L20.9099722,11.9399443 L20.2445386,11.1252782 L20.2445386,11.9399443 L18.0639637,11.9399443 L18.0639637,10.5492845 C18.0639637,10.5492845 17.7660939,10.7434043 17.1221195,10.7434043 L16.3799049,10.7434043 L16.3799049,11.9399443 L13.0783303,11.9399443 L12.4889682,11.1581919 L11.8905568,11.9399443 L6.42399382,11.9399443 Z" id="path3082" fill="#FFFFFF"></path>
                <path d="M1.5535048e-13,2.87678721 L1.24051345,4.51356124e-14 L3.38585182,4.51356124e-14 L4.08985753,1.61145964 L4.08985753,4.51356124e-14 L6.75671091,4.51356124e-14 L7.1758059,1.16471527 L7.58210428,4.51356124e-14 L19.5535113,4.51356124e-14 L19.5535113,0.585540465 C19.5535113,0.585540465 20.1828377,4.51356124e-14 21.2170956,4.51356124e-14 L25.1013791,0.0135034348 L25.7932315,1.60387307 L25.7932315,4.51356124e-14 L28.0249933,4.51356124e-14 L28.63924,0.91353928 L28.63924,4.51356124e-14 L30.8914767,4.51356124e-14 L30.8914767,5.16803401 L28.63924,5.16803401 L28.0505871,4.25153462 L28.0505871,5.16803401 L24.7716341,5.16803401 L24.4418892,4.35336789 L23.5603961,4.35336789 L23.2360182,5.16803401 L21.0123467,5.16803401 C20.1224003,5.16803401 19.5535113,4.59444929 19.5535113,4.59444929 L19.5535113,5.16803401 L16.2007499,5.16803401 L15.5353159,4.35336789 L15.5353159,5.16803401 L3.06803294,5.16803401 L2.73851519,4.35336789 L1.85983304,4.35336789 L1.5326442,5.16803401 L1.5535048e-13,5.16803401 L1.5535048e-13,2.87678721 Z" id="path3080" fill="#FFFFFF"></path>
                <path d="M1.67958017,0.637108786 L0.00639847197,4.50676948 L1.09572611,4.50676948 L1.40444891,3.73188766 L3.19920021,3.73188766 L3.50632355,4.50676948 L4.6196452,4.50676948 L2.94806289,0.637108786 L1.67958017,0.637108786 Z M2.29862525,1.5376958 L2.84568871,2.89176243 L1.7499624,2.89176243 L2.29862525,1.5376958 L2.29862525,1.5376958 Z" id="path3046" fill="#016FD0"></path>
                <polygon id="path3048" fill="#016FD0" points="4.73481617 4.50611946 4.73481617 0.636455448 6.28281138 0.642174246 7.183178 3.13708753 8.06198458 0.636455448 9.59760055 0.636455448 9.59760055 4.50611946 8.6250437 4.50611946 8.6250437 1.65478805 7.5941129 4.50611946 6.74117845 4.50611946 5.70737309 1.65478805 5.70737309 4.50611946"></polygon>
                <polygon id="path3050" fill="#016FD0" points="10.2630341 4.50611946 10.2630341 0.636455448 13.4366408 0.636455448 13.4366408 1.5020398 11.2458285 1.5020398 11.2458285 2.16395435 13.3854536 2.16395435 13.3854536 2.97862048 11.2458285 2.97862048 11.2458285 3.66599415 13.4366408 3.66599415 13.4366408 4.50611946"></polygon>
                <path d="M13.9997,0.637108786 L13.9997,4.50676948 L14.9722568,4.50676948 L14.9722568,3.13202214 L15.3817543,3.13202214 L16.5478629,4.50676948 L17.7363658,4.50676948 L16.4566856,3.08110716 C16.9818742,3.03702304 17.5236188,2.58864515 17.5236188,1.89252328 C17.5236188,1.07821026 16.8810783,0.637108786 16.1639588,0.637108786 L13.9997,0.637108786 L13.9997,0.637108786 Z M14.9722568,1.50268989 L16.0839788,1.50268989 C16.3506656,1.50268989 16.5446638,1.71019754 16.5446638,1.91002292 C16.5446638,2.16710585 16.2933065,2.31735602 16.0983754,2.31735602 L14.9722568,2.31735602 L14.9722568,1.50268989 L14.9722568,1.50268989 Z" id="path3052" fill="#016FD0"></path>
                <polygon id="path3054" fill="#016FD0" points="18.9136716 4.50611946 17.9206398 4.50611946 17.9206398 0.636455448 18.9136716 0.636455448"></polygon>
                <path d="M21.2682828,4.50611946 L21.0539363,4.50611946 C20.0168318,4.50611946 19.3871531,3.69336729 19.3871531,2.58719977 C19.3871531,1.45370542 20.0097817,0.636455448 21.31947,0.636455448 L22.3944013,0.636455448 L22.3944013,1.55295478 L21.28017,1.55295478 C20.748509,1.55295478 20.3725066,1.96567004 20.3725066,2.59674656 C20.3725066,3.3461528 20.802449,3.66090236 21.4218445,3.66090236 L21.6777802,3.66090236 L21.2682828,4.50611946 Z" id="path3056" fill="#016FD0"></path>
                <path d="M23.3845535,0.637108786 L21.7113721,4.50676948 L22.8006997,4.50676948 L23.1094224,3.73188766 L24.9041739,3.73188766 L25.2112969,4.50676948 L26.3246185,4.50676948 L24.6530365,0.637108786 L23.3845535,0.637108786 Z M24.0035989,1.5376958 L24.5506621,2.89176243 L23.4549361,2.89176243 L24.0035989,1.5376958 Z" id="path3058" fill="#016FD0"></path>
                <polygon id="path3060" fill="#016FD0" points="26.4381902 4.50611946 26.4381902 0.636455448 27.6746809 0.636455448 29.2534863 3.06772582 29.2534863 0.636455448 30.2260432 0.636455448 30.2260432 4.50611946 29.0295425 4.50611946 27.410747 2.0112061 27.410747 4.50611946"></polygon>
                <polygon id="path3062" fill="#016FD0" points="7.08942773 11.2780298 7.08942773 7.40836577 10.2630341 7.40836577 10.2630341 8.27395019 8.07222201 8.27395019 8.07222201 8.93586475 10.2118469 8.93586475 10.2118469 9.7505308 8.07222201 9.7505308 8.07222201 10.4379045 10.2630341 10.4379045 10.2630341 11.2780298"></polygon>
                <polygon id="path3064" fill="#016FD0" points="22.6400996 11.2780298 22.6400996 7.40836577 25.8137064 7.40836577 25.8137064 8.27395019 23.622894 8.27395019 23.622894 8.93586475 25.7522817 8.93586475 25.7522817 9.7505308 23.622894 9.7505308 23.622894 10.4379045 25.8137064 10.4379045 25.8137064 11.2780298"></polygon>
                <polygon id="path3066" fill="#016FD0" points="10.3862032 11.2780298 11.9314171 9.36706301 10.3494126 7.40836577 11.5747062 7.40836577 12.5168706 8.61922432 13.4622343 7.40836577 14.6395401 7.40836577 13.0783303 9.34319778 14.6263886 11.2780298 13.4012887 11.2780298 12.4864783 10.0862582 11.5939015 11.2780298"></polygon>
                <path d="M14.7419145,7.40901918 L14.7419145,11.2786799 L15.7400648,11.2786799 L15.7400648,10.0566807 L16.7638089,10.0566807 C17.6300412,10.0566807 18.286628,9.59955794 18.286628,8.71057363 C18.286628,7.97414276 17.7716636,7.40901918 16.8901774,7.40901918 L14.7419145,7.40901918 L14.7419145,7.40901918 Z M15.7400648,8.28414701 L16.8181952,8.28414701 C17.0980408,8.28414701 17.2980752,8.45475788 17.2980752,8.72966716 C17.2980752,8.98792812 17.0990506,9.17518723 16.8149961,9.17518723 L15.7400648,9.17518723 L15.7400648,8.28414701 Z" id="path3068" fill="#016FD0"></path>
                <path d="M18.7089227,7.40836577 L18.7089227,11.2780298 L19.6814796,11.2780298 L19.6814796,9.90327906 L20.090977,9.90327906 L21.2570856,11.2780298 L22.4455885,11.2780298 L21.1659083,9.85236408 C21.6910966,9.80827341 22.2328415,9.35990214 22.2328415,8.66377695 C22.2328415,7.84946725 21.590301,7.40836577 20.8731816,7.40836577 L18.7089227,7.40836577 L18.7089227,7.40836577 Z M19.6814796,8.27395019 L20.7932015,8.27395019 C21.0598883,8.27395019 21.2538862,8.48145452 21.2538862,8.68127991 C21.2538862,8.93836608 21.0025289,9.088613 20.8075978,9.088613 L19.6814796,9.088613 L19.6814796,8.27395019 L19.6814796,8.27395019 Z" id="path3072" fill="#016FD0"></path>
                <path d="M26.2641536,11.2780298 L26.2641536,10.4379045 L28.2105472,10.4379045 C28.4985436,10.4379045 28.6232441,10.2830971 28.6232441,10.1133112 C28.6232441,9.9506367 28.4989367,9.78617364 28.2105472,9.78617364 L27.3309942,9.78617364 C26.5664549,9.78617364 26.1406646,9.32283046 26.1406646,8.62718379 C26.1406646,8.00671662 26.5305853,7.40836577 27.6666831,7.40836577 L29.5606097,7.40836577 L29.1511119,8.27903867 L27.5131214,8.27903867 C27.2000098,8.27903867 27.1036237,8.44247219 27.1036237,8.59854347 C27.1036237,8.75896082 27.2227336,8.93586475 27.4619342,8.93586475 L28.3833039,8.93586475 C29.2355769,8.93586475 29.6053984,9.41674715 29.6053984,10.0464838 C29.6053984,10.7235122 29.1932957,11.2780298 28.3369075,11.2780298 L26.2641536,11.2780298 Z" id="path3074" fill="#016FD0"></path>
                <path d="M29.8336617,11.2780298 L29.8336617,10.4379045 L31.780054,10.4379045 C32.068052,10.4379045 32.1927532,10.2830971 32.1927532,10.1133112 C32.1927532,9.9506367 32.0684435,9.78617364 31.780054,9.78617364 L30.9005023,9.78617364 C30.1359631,9.78617364 29.7101724,9.32283046 29.7101724,8.62718379 C29.7101724,8.00671662 30.100093,7.40836577 31.2361909,7.40836577 L33.1301168,7.40836577 L32.720619,8.27903867 L31.0826293,8.27903867 C30.7695178,8.27903867 30.6731318,8.44247219 30.6731318,8.59854347 C30.6731318,8.75896082 30.7922413,8.93586475 31.031442,8.93586475 L31.9528124,8.93586475 C32.8050856,8.93586475 33.1749062,9.41674715 33.1749062,10.0464838 C33.1749062,10.7235122 32.7628042,11.2780298 31.9064139,11.2780298 L29.8336617,11.2780298 Z" id="path3076" fill="#016FD0"></path>
            </g>
        </g>
    </g>
</svg>