<?xml version="1.0" encoding="UTF-8"?>
<svg width="44px" height="28px" viewBox="0 0 44 28" version="1.1" xmlns="http://www.w3.org/2000/svg" xmlns:xlink="http://www.w3.org/1999/xlink">
    <title>brand-cartesbancaires</title>
    <defs>
        <linearGradient x1="97.610432%" y1="29.7520661%" x2="2.21738454%" y2="70.2479339%" id="linearGradient-1">
            <stop stop-color="#001E5A" offset="0%"></stop>
            <stop stop-color="#00508B" offset="25.4097629%"></stop>
            <stop stop-color="#0085A4" offset="51.4245935%"></stop>
            <stop stop-color="#00A388" offset="74.9707654%"></stop>
            <stop stop-color="#00A84C" offset="100%"></stop>
        </linearGradient>
    </defs>
    <g id="brand-cartesbancaires" stroke="none" stroke-width="1" fill="none" fill-rule="evenodd">
        <g id="card-cartes-bancaires" fill-rule="nonzero">
            <rect id="base" fill-opacity="0" fill="#D8D8D8" x="0" y="0" width="44" height="28"></rect>
            <rect id="Rectangle" fill="url(#linearGradient-1)" x="0" y="0" width="44" height="28"></rect>
            <path d="M38.9180914,10.3775707 C38.9180914,8.51455666 37.4091101,7.00364546 35.5465249,7.00064329 L35.5465249,7 L23.2583093,7 L23.2583093,13.7583579 L35.5465249,13.7583579 L35.5465249,13.7547124 C37.4091101,13.7514958 38.9180914,12.2405846 38.9180914,10.3775707 L38.9180914,10.3775707 Z M38.9180914,17.5452855 C38.9180914,15.6822714 37.4091101,14.1715746 35.5465249,14.1683582 L35.5465249,14.1679293 L23.2583093,14.1679293 L23.2583093,20.9265015 L35.5465249,20.9265015 L35.5465249,20.9222128 C37.4091101,20.9192107 38.9180914,19.4087283 38.9180914,17.5452855 Z M13.9992069,14.1679293 L13.9992069,13.7583579 L23.0217871,13.7583579 L23.0217871,13.1888176 C23.0217871,9.7955932 20.2714398,7.04503147 16.8782154,7.04503147 L11.1442151,7.04503147 C7.75099063,7.04503147 5,9.7955932 5,13.1888176 L5,14.8273179 C5,18.2203279 7.75099063,20.971104 11.1442151,20.971104 L16.8782154,20.971104 C20.2714398,20.971104 23.0217871,18.2203279 23.0217871,14.8273179 L23.0217871,14.1679293 L13.9992069,14.1679293 L13.9992069,14.1679293 Z" id="Shape" fill="#FFFFFF"></path>
        </g>
    </g>
</svg>