<?xml version="1.0" encoding="UTF-8"?>
<svg width="44px" height="28px" viewBox="0 0 44 28" version="1.1" xmlns="http://www.w3.org/2000/svg" xmlns:xlink="http://www.w3.org/1999/xlink">
    <title>brand-diners</title>
    <g id="brand-diners" stroke="none" stroke-width="1" fill="none" fill-rule="evenodd">
        <g id="card-diners" fill-rule="nonzero">
            <rect id="base" fill="#FFFFFF" x="0" y="0" width="44" height="28"></rect>
            <g id="diners" transform="translate(11.254468, 5.250000)">
                <path d="M12.6897775,17.0671473 C17.3800456,17.0891 21.6612766,13.3596167 21.6612766,8.82221667 C21.6612766,3.86085 17.3800456,0.43155 12.6897775,0.432832973 L8.65295796,0.432832973 C3.90685191,0.43155 0,3.86155 0,8.82221667 C0,13.3606667 3.90685191,17.0891 8.65295796,17.0671473 L12.6897775,17.0671473 Z" id="Shape" fill="#0069AA"></path>
                <path d="M10.4537321,13.2402667 L10.4537321,4.23091667 C12.3217765,4.92555 13.6478077,6.67881667 13.6511772,8.73541667 C13.6478077,10.7919 12.3217765,12.54435 10.4537321,13.2402667 M3.69469174,8.73541667 C3.69866298,6.68021667 5.02300936,4.92776667 6.88985038,4.23103333 L6.88985038,13.2385167 C5.02300936,12.54225 3.69866298,10.79085 3.69469174,8.73541667 M8.67221243,1.12058333 C4.33502315,1.12186667 0.820360681,4.5297 0.819518298,8.73541667 C0.820360681,12.94055 4.33514349,16.3475667 8.67221243,16.3487333 C13.0106051,16.34745 16.5258693,12.9404333 16.5263506,8.73541667 C16.5258693,4.5297 13.0106051,1.12186667 8.67221243,1.12058333" id="Shape" fill="#FFFFFF"></path>
            </g>
        </g>
    </g>
</svg>