<?xml version="1.0" encoding="UTF-8"?>
<svg width="44px" height="28px" viewBox="0 0 44 28" version="1.1" xmlns="http://www.w3.org/2000/svg" xmlns:xlink="http://www.w3.org/1999/xlink">
    <title>brand-discover</title>
    <defs>
        <linearGradient x1="15.6373166%" y1="-3.37742088%" x2="77.5862069%" y2="87.0099197%" id="linearGradient-1">
            <stop stop-color="#832F24" offset="0%"></stop>
            <stop stop-color="#D2572A" offset="30.4536873%"></stop>
            <stop stop-color="#F99B21" offset="100%"></stop>
        </linearGradient>
    </defs>
    <g id="brand-discover" stroke="none" stroke-width="1" fill="none" fill-rule="evenodd">
        <g id="card-discover" transform="translate(-0.857143, 0.000000)" fill-rule="nonzero">
            <rect id="base" fill="#FFFFFF" x="0.857142857" y="0" width="44" height="28"></rect>
            <path d="M44.8571429,14 C44.8571429,14 34.9685121,23.6696445 16.8571429,28 L44.8571429,28 L44.8571429,14 Z" id="Shape" fill="#F58220"></path>
            <g transform="translate(4.857143, 11.000000)" id="Group-2">
                <g transform="translate(0.056515, 0.000000)">
                    <path d="M2.91905054,4.32640279 C2.57698224,4.6353808 2.13259795,4.77017805 1.42917559,4.77017805 L1.13694572,4.77017805 L1.13694572,1.07929148 L1.42917559,1.07929148 C2.13259795,1.07929148 2.55952356,1.20505488 2.91905054,1.53067954 C3.29563019,1.86584558 3.5220855,2.38534278 3.5220855,2.92006558 C3.5220855,3.45590492 3.29563019,3.99133825 2.91905054,4.32640279 Z M1.64720607,0.133477692 L0.0491279109,0.133477692 L0.0491279109,5.71497677 L1.63888275,5.71497677 C2.48410612,5.71497677 3.09444937,5.51562303 3.63028871,5.07062973 C4.26702298,4.54372274 4.64350112,3.74955585 4.64350112,2.9281859 C4.64350112,1.28097982 3.41286725,0.133477692 1.64720607,0.133477692 L1.64720607,0.133477692 Z" id="Fill-6" fill="#1B1A19"></path>
                    <polygon id="Fill-7" fill="#1B1A19" points="5.14452462 5.7148753 6.23325593 5.7148753 6.23325593 0.133477692 5.14452462 0.133477692"></polygon>
                    <path d="M8.8952985,2.27541401 C8.2420191,2.0336316 8.05017665,1.8741689 8.05017665,1.57260067 C8.05017665,1.2210925 8.3919404,0.953934103 8.86119315,0.953934103 C9.18742686,0.953934103 9.45549881,1.08802082 9.73910081,1.40593119 L10.308741,0.660080176 C9.84060478,0.250613248 9.28060746,0.0413121069 8.66864019,0.0413121069 C7.68110828,0.0413121069 6.92784745,0.72707278 6.92784745,1.64050681 C6.92784745,2.40950072 7.2785436,2.80313303 8.30109441,3.17118635 C8.72720798,3.3215137 8.94412191,3.42169809 9.05364464,3.48909671 C9.2711676,3.63110074 9.38008134,3.83218006 9.38008134,4.06655268 C9.38008134,4.51885427 9.02045289,4.8538173 8.5347565,4.8538173 C8.01546227,4.8538173 7.59726602,4.5941702 7.34655126,4.10938734 L6.64323038,4.78672319 C7.1448629,5.52293132 7.74718732,5.84926651 8.57566258,5.84926651 C9.70702556,5.84926651 10.500685,5.09702074 10.500685,4.01661273 C10.500685,3.12967123 10.1337482,2.72832462 8.8952985,2.27541401" id="Fill-8" fill="#1B1A19"></path>
                    <path d="M10.9106594,3.02228006 C10.9106594,4.66278687 12.198846,5.93493587 13.85671,5.93493587 C14.3253537,5.93493587 14.7267003,5.84277029 15.2217351,5.60971718 L15.2217351,4.32812835 C14.7863846,4.76368179 14.4009742,4.93938513 13.9073604,4.93938513 C12.8108133,4.93938513 12.032684,4.1444062 12.032684,3.01415974 C12.032684,1.94258256 12.8354788,1.09725768 13.85671,1.09725768 C14.3760042,1.09725768 14.7690274,1.28250239 15.2217351,1.72526261 L15.2217351,0.444282781 C14.743753,0.201891353 14.3508312,0.101503948 13.8823905,0.101503948 C12.2330528,0.101503948 10.9106594,1.39943493 10.9106594,3.02228006" id="Fill-9" fill="#1B1A19"></path>
                    <polyline id="Fill-10" fill="#1B1A19" points="23.7874502 3.88262752 22.2989964 0.133477692 21.1096746 0.133477692 23.4782692 5.85819886 24.06415 5.85819886 26.4753763 0.133477692 25.2951899 0.133477692 23.7874502 3.88262752"></polyline>
                    <polyline id="Fill-11" fill="#1B1A19" points="26.9676704 5.71497677 30.0552176 5.71497677 30.0552176 4.77017805 28.0555898 4.77017805 28.0555898 3.26355494 29.9815257 3.26355494 29.9815257 2.31814717 28.0555898 2.31814717 28.0555898 1.07929148 30.0552176 1.07929148 30.0552176 0.133477692 26.9676704 0.133477692 26.9676704 5.71497677"></polyline>
                    <path d="M32.1817253,2.70315164 L31.8637134,2.70315164 L31.8637134,1.01270489 L32.1989809,1.01270489 C32.8770273,1.01270489 33.2455881,1.29681444 33.2455881,1.83996207 C33.2455881,2.40107589 32.8770273,2.70315164 32.1817253,2.70315164 Z M34.3658872,1.78129279 C34.3658872,0.736411144 33.6461227,0.133477692 32.3906204,0.133477692 L30.7763016,0.133477692 L30.7763016,5.71497677 L31.8637134,5.71497677 L31.8637134,3.47285608 L32.0057174,3.47285608 L33.512645,5.71497677 L34.8514821,5.71497677 L33.0943472,3.36363783 C33.9143977,3.19686685 34.3658872,2.63595603 34.3658872,1.78129279 L34.3658872,1.78129279 Z" id="Fill-12" fill="#1B1A19"></path>
                    <circle id="Oval" fill="url(#linearGradient-1)" cx="18.4737186" cy="3.04511845" r="2.9436145"></circle>
                </g>
            </g>
        </g>
    </g>
</svg>