<svg width="44" height="28" viewBox="0 0 44 28" fill="none" xmlns="http://www.w3.org/2000/svg">
<rect width="44" height="28" fill="white"/>
<path d="M20.7358 14.2512V18.647H19.3407V7.79197H23.039C23.9763 7.79197 24.7755 8.1044 25.4294 8.72926C26.0979 9.35411 26.4321 10.117 26.4321 11.018C26.4321 11.9407 26.0979 12.7036 25.4294 13.3212C24.7828 13.9388 23.9836 14.244 23.039 14.244H20.7358V14.2512ZM20.7358 9.12887V12.9143H23.0681C23.6203 12.9143 24.0853 12.7254 24.4486 12.3549C24.8191 11.9843 25.008 11.5338 25.008 11.0252C25.008 10.5239 24.8191 10.0807 24.4486 9.71014C24.0853 9.32505 23.6275 9.13614 23.0681 9.13614H20.7358V9.12887Z" fill="#3C4043"/>
<path d="M30.0795 10.9744C31.1113 10.9744 31.925 11.2505 32.5208 11.8027C33.1166 12.3549 33.4145 13.1105 33.4145 14.0696V18.647H32.0849V17.6153H32.0268C31.4528 18.4654 30.6826 18.8868 29.7235 18.8868C28.9025 18.8868 28.2195 18.647 27.6673 18.1602C27.1151 17.6734 26.839 17.0704 26.839 16.3438C26.839 15.5736 27.1296 14.9633 27.7109 14.5128C28.2922 14.0551 29.0696 13.8298 30.0359 13.8298C30.8642 13.8298 31.5472 13.9824 32.0776 14.2876V13.9679C32.0776 13.4811 31.8887 13.0742 31.5036 12.7327C31.1185 12.3912 30.6681 12.2241 30.1522 12.2241C29.3748 12.2241 28.7572 12.5511 28.3067 13.2122L27.0788 12.4421C27.7545 11.4612 28.7572 10.9744 30.0795 10.9744ZM28.2776 16.3656C28.2776 16.7289 28.4302 17.034 28.7426 17.2738C29.0478 17.5136 29.4111 17.6371 29.8252 17.6371C30.4138 17.6371 30.9369 17.4191 31.3946 16.9832C31.8524 16.5472 32.0849 16.0386 32.0849 15.4501C31.6489 15.1086 31.0459 14.9342 30.2685 14.9342C29.7017 14.9342 29.2294 15.0723 28.8516 15.3411C28.4665 15.6245 28.2776 15.966 28.2776 16.3656Z" fill="#3C4043"/>
<path d="M41 11.2141L36.3499 21.9094H34.9113L36.6405 18.1675L33.5744 11.2141H35.0929L37.3017 16.5472H37.3308L39.4815 11.2141H41Z" fill="#3C4043"/>
<path d="M15.1869 13.3648C15.1869 12.91 15.1462 12.4748 15.0706 12.0563H9.22313V14.454L12.5908 14.4547C12.4542 15.2525 12.0146 15.9325 11.3411 16.3859V17.9415H13.3457C14.5162 16.8582 15.1869 15.2568 15.1869 13.3648Z" fill="#4285F4"/>
<path d="M11.3418 16.3859C10.7838 16.7623 10.0652 16.9824 9.22459 16.9824C7.60069 16.9824 6.2231 15.8882 5.72975 14.4133H3.66191V16.0176C4.68639 18.0505 6.79201 19.4455 9.22459 19.4455C10.9059 19.4455 12.3184 18.8926 13.3465 17.9408L11.3418 16.3859Z" fill="#34A853"/>
<path d="M5.53503 13.2231C5.53503 12.809 5.60405 12.4086 5.72975 12.0323V10.428H3.66191C3.23832 11.2686 3 12.2176 3 13.2231C3 14.2287 3.23904 15.1776 3.66191 16.0183L5.72975 14.414C5.60405 14.0376 5.53503 13.6373 5.53503 13.2231Z" fill="#FABB05"/>
<path d="M9.22459 9.4631C10.1423 9.4631 10.964 9.77916 11.6128 10.3968L13.3893 8.62172C12.3104 7.61686 10.9037 7 9.22459 7C6.79273 7 4.68639 8.39503 3.66191 10.428L5.72975 12.0323C6.2231 10.5573 7.60069 9.4631 9.22459 9.4631Z" fill="#E94235"/>
</svg>
