<?xml version="1.0" encoding="UTF-8"?>
<svg width="44px" height="28px" viewBox="0 0 44 28" version="1.1" xmlns="http://www.w3.org/2000/svg" xmlns:xlink="http://www.w3.org/1999/xlink">
    <title>brand-jcb</title>
    <defs>
        <linearGradient x1="-57.5270968%" y1="50.1241953%" x2="232.39121%" y2="50.1241953%" id="linearGradient-1">
            <stop stop-color="#007940" offset="0%"></stop>
            <stop stop-color="#00873F" offset="22.85%"></stop>
            <stop stop-color="#40A737" offset="74.33%"></stop>
            <stop stop-color="#5CB531" offset="100%"></stop>
        </linearGradient>
        <linearGradient x1="0.182516704%" y1="49.95997%" x2="100.273441%" y2="49.95997%" id="linearGradient-2">
            <stop stop-color="#007940" offset="0%"></stop>
            <stop stop-color="#00873F" offset="22.85%"></stop>
            <stop stop-color="#40A737" offset="74.33%"></stop>
            <stop stop-color="#5CB531" offset="100%"></stop>
        </linearGradient>
        <linearGradient x1="-62.8015845%" y1="49.8578253%" x2="253.671294%" y2="49.8578253%" id="linearGradient-3">
            <stop stop-color="#007940" offset="0%"></stop>
            <stop stop-color="#00873F" offset="22.85%"></stop>
            <stop stop-color="#40A737" offset="74.33%"></stop>
            <stop stop-color="#5CB531" offset="100%"></stop>
        </linearGradient>
        <linearGradient x1="0.175556793%" y1="50.0058048%" x2="101.808162%" y2="50.0058048%" id="linearGradient-4">
            <stop stop-color="#1F286F" offset="0%"></stop>
            <stop stop-color="#004E94" offset="47.51%"></stop>
            <stop stop-color="#0066B1" offset="82.61%"></stop>
            <stop stop-color="#006FBC" offset="100%"></stop>
        </linearGradient>
        <linearGradient x1="-0.575855512%" y1="49.9142191%" x2="98.13299%" y2="49.9142191%" id="linearGradient-5">
            <stop stop-color="#6C2C2F" offset="0%"></stop>
            <stop stop-color="#882730" offset="17.35%"></stop>
            <stop stop-color="#BE1833" offset="57.31%"></stop>
            <stop stop-color="#DC0436" offset="85.85%"></stop>
            <stop stop-color="#E60039" offset="100%"></stop>
        </linearGradient>
    </defs>
    <g id="brand-jcb" stroke="none" stroke-width="1" fill="none" fill-rule="evenodd">
        <g id="card-jcb" transform="translate(0.000000, -0.000000)" fill-rule="nonzero">
            <rect id="base" fill="#FFFFFF" x="0" y="0" width="44" height="28"></rect>
            <g id="JCB_logo-Copy" transform="translate(9.000000, 4.000000)">
                <path d="M25.7057392,15.8068299 C25.7057392,18.0065875 23.914508,19.7978188 21.7147504,19.7978188 L-3.45043261e-09,19.7978188 L-3.45043261e-09,3.99098889 C-3.45043261e-09,1.79123125 1.79123121,3.70921739e-08 3.99098885,3.70921739e-08 L25.7057392,3.70921739e-08 L25.7057392,15.8068299 Z" id="path6325" fill="#FFFFFF"></path>
                <g id="g6327" transform="translate(17.220960, 1.304142)">
                    <path d="M1.41412991,10.4488488 L3.06394814,10.4488488 C3.1110858,10.4488488 3.22107368,10.4331362 3.26821135,10.4331362 C3.58246244,10.370286 3.84957586,10.08746 3.84957586,9.69464615 C3.84957586,9.31754484 3.58246244,9.03471886 3.26821135,8.9561561 C3.22107368,8.94044354 3.12679836,8.94044354 3.06394814,8.94044354 L1.41412991,8.94044354 L1.41412991,10.4488488 Z" id="path6338" fill="url(#linearGradient-1)"></path>
                    <path d="M2.87539748,0.0314251091 C1.30414203,0.0314251091 0.0157125546,1.30414203 0.0157125546,2.89111004 L0.0157125546,5.86078284 L4.05383907,5.86078284 C4.1481144,5.86078284 4.25810228,5.86078284 4.33666506,5.87649541 C5.24799322,5.92363304 5.92363304,6.39500967 5.92363304,7.21206254 C5.92363304,7.85627726 5.46796898,8.40621671 4.61949103,8.51620454 L4.61949103,8.54762967 C5.54653174,8.61047987 6.25359671,9.12899419 6.25359671,9.93033449 C6.25359671,10.794525 5.46796898,11.3601769 4.43094038,11.3601769 L2.2328883e-15,11.3601769 L2.2328883e-15,17.1738221 L4.19525207,17.1738221 C5.76650752,17.1738221 7.05493701,15.9011052 7.05493701,14.3141372 L7.05493701,0.0314251091 L2.87539748,0.0314251091 Z" id="path6349" fill="url(#linearGradient-2)"></path>
                    <path d="M3.64531266,7.40061319 C3.64531266,7.02351189 3.37819923,6.77211103 3.06394814,6.72497334 C3.03252302,6.72497334 2.95396026,6.70926078 2.90682259,6.70926078 L1.41412991,6.70926078 L1.41412991,8.0919656 L2.90682259,8.0919656 C2.95396026,8.0919656 3.04823558,8.0919656 3.06394814,8.07625304 C3.37819923,8.02911535 3.64531266,7.7777145 3.64531266,7.40061319 L3.64531266,7.40061319 Z" id="path6360" fill="url(#linearGradient-3)"></path>
                </g>
                <path d="M4.28952739,1.33556717 C2.71827194,1.33556717 1.42984246,2.60828409 1.42984246,4.1952521 L1.42984246,11.2501891 C2.23118274,11.643003 3.06394814,11.8944038 3.89671352,11.8944038 C4.88660446,11.8944038 5.42083131,11.2973267 5.42083131,10.4802739 L5.42083131,7.14921234 L7.87198982,7.14921234 L7.87198982,10.4645614 C7.87198982,11.7529908 7.07064952,12.805732 4.35237761,12.805732 C2.70255938,12.805732 1.4141299,12.4443432 1.4141299,12.4443432 L1.4141299,18.4622517 L5.60938199,18.4622517 C7.18063741,18.4622517 8.46906691,17.1895347 8.46906691,15.6025667 L8.46906691,1.33556717 L4.28952739,1.33556717 Z" id="path6371" fill="url(#linearGradient-4)"></path>
                <path d="M12.1929423,1.33556717 C10.6216868,1.33556717 9.33325741,2.60828409 9.33325741,4.1952521 L9.33325741,7.93484008 C10.0560349,7.32205043 11.3130393,6.92923662 13.3399588,7.02351194 C14.4241251,7.07064958 15.5868541,7.36918812 15.5868541,7.36918812 L15.5868541,8.5790548 C15.0054896,8.28051631 14.3141372,8.01340284 13.4185216,7.95055264 C11.8786912,7.84056475 10.9516505,8.59476736 10.9516505,9.91462198 C10.9516505,11.2501891 11.8786912,12.0043917 13.4185216,11.8786913 C14.3141372,11.8158411 15.0054896,11.5330151 15.5868541,11.2501891 L15.5868541,12.4600558 C15.5868541,12.4600558 14.4398376,12.7585943 13.3399588,12.805732 C11.3130393,12.9000073 10.0560349,12.5071935 9.33325741,11.8944038 L9.33325741,18.4936767 L13.5285095,18.4936767 C15.0997649,18.4936767 16.3881944,17.2209598 16.3881944,15.6339918 L16.3881944,1.33556717 L12.1929423,1.33556717 Z" id="path6384" fill="url(#linearGradient-5)"></path>
            </g>
        </g>
    </g>
</svg>