<?xml version="1.0" encoding="UTF-8"?>
<svg width="44px" height="28px" viewBox="0 0 44 28" version="1.1" xmlns="http://www.w3.org/2000/svg" xmlns:xlink="http://www.w3.org/1999/xlink">
    <title>brand-mastercard</title>
    <g id="brand-mastercard" stroke="none" stroke-width="1" fill="none" fill-rule="evenodd">
        <g id="card-mastercard" fill-rule="nonzero">
            <rect id="base" fill="#FFFFFF" x="0" y="0" width="44" height="28"></rect>
            <g id="mastercard" transform="translate(6.000000, 4.000000)">
                <polygon id="Rectangle-path" fill="#FF5F00" points="11.4555618 2.28050536 19.8085757 2.28050536 19.8085757 17.2894128 11.4555618 17.2894128"></polygon>
                <path d="M11.9859119,9.78495907 C11.9859119,6.73544607 13.4178572,4.03066064 15.61881,2.28050536 C14.0012422,1.00766516 11.9593944,0.238657538 9.73192403,0.238657538 C4.45494071,0.238657538 0.18562253,4.50797572 0.18562253,9.78495907 C0.18562253,15.0619424 4.45494071,19.3312606 9.73192403,19.3312606 C11.9593944,19.3312606 14.0012422,18.562253 15.61881,17.2894128 C13.4178572,15.565775 11.9859119,12.8344721 11.9859119,9.78495907 Z" id="XMLID_330_" fill="#EB001B"></path>
                <path d="M31.0785149,9.78495907 C31.0785149,15.0619424 26.8091968,19.3312606 21.5322134,19.3312606 C19.3047431,19.3312606 17.2628952,18.562253 15.6453275,17.2894128 C17.8727979,15.5392575 19.2782256,12.8344721 19.2782256,9.78495907 C19.2782256,6.73544607 17.8462803,4.03066064 15.6453275,2.28050536 C17.2628952,1.00766516 19.3047431,0.238657538 21.5322134,0.238657538 C26.8091968,0.238657538 31.0785149,4.53449322 31.0785149,9.78495907 Z" id="Shape" fill="#F79E1B"></path>
            </g>
        </g>
    </g>
</svg>