<?xml version="1.0" encoding="UTF-8"?>
<svg width="44px" height="28px" viewBox="0 0 44 28" version="1.1" xmlns="http://www.w3.org/2000/svg" xmlns:xlink="http://www.w3.org/1999/xlink">
    <title>brand-chinaunionpay</title>
    <g id="brand-chinaunionpay" stroke="none" stroke-width="1" fill="none" fill-rule="evenodd">
        <g id="card-unionpay" fill-rule="nonzero">
            <rect id="base" fill="#FFFFFF" x="0" y="0" width="44" height="28"></rect>
            <g id="UnionPay_logo-Copy" transform="translate(6.000000, 4.000000)">
                <path d="M6.19004553,8.34454129e-05 L14.079323,8.34454129e-05 C15.1805951,8.34454129e-05 15.865549,0.907164182 15.6086432,2.02372071 L11.9356208,17.959427 C11.6764075,19.0720971 10.5737894,19.9799551 9.471748,19.9799551 L1.58323973,19.9799551 C0.483505964,19.9799551 -0.202986356,19.0720971 0.0539194528,17.959427 L3.72848016,2.02372071 C3.98538598,0.907164182 5.08742729,8.34454129e-05 6.19004553,8.34454129e-05" id="Path" fill="#E21836"></path>
                <path d="M13.4228671,8.34454129e-05 L22.4953342,8.34454129e-05 C23.5964139,8.34454129e-05 23.0999089,0.907164182 22.8408878,2.02372071 L19.1684424,17.959427 C18.9107674,19.0720971 18.9911466,19.9799551 17.8877592,19.9799551 L8.81529212,19.9799551 C7.71190476,19.9799551 7.029066,19.0720971 7.28827941,17.959427 L10.9605325,2.02372071 C11.2212842,0.907164182 12.321018,8.34454129e-05 13.4228671,8.34454129e-05" id="Path" fill="#00447C"></path>
                <path d="M22.1354738,8.34454129e-05 L30.0247511,8.34454129e-05 C31.1275617,8.34454129e-05 31.8125156,0.907164182 31.5534946,2.02372071 L27.8810492,17.959427 C27.6218358,19.0720971 26.5184483,19.9799551 25.4158302,19.9799551 L17.5302064,19.9799551 C16.426819,19.9799551 15.7424419,19.0720971 16.0008861,17.959427 L19.6739084,2.02372071 C19.9308144,0.907164182 21.0320864,8.34454129e-05 22.1354738,8.34454129e-05" id="Path" fill="#007B84"></path>
                <path d="M8.25044547,5.10701792 C7.43915388,5.11537364 7.19955459,5.10701792 7.12302129,5.08875195 C7.09360018,5.2300218 6.54613694,7.78201224 6.54459853,7.78414976 C6.42672188,8.30045512 6.34095847,8.66849512 6.04963182,8.90614718 C5.88425835,9.04430794 5.69119441,9.11095929 5.46736329,9.11095929 C5.10757979,9.11095929 4.89797848,8.93043706 4.86278854,8.58804712 L4.85605824,8.47048418 C4.85605824,8.47048418 4.96566624,7.77890312 4.96566624,7.77501676 C4.96566624,7.77501676 5.54024302,5.44940786 5.64312072,5.14199534 C5.64850496,5.12450664 5.65004332,5.11537364 5.65138938,5.10701792 C4.53300302,5.11692819 4.33474711,5.10701792 4.32109419,5.08875195 C4.31359468,5.11381909 4.28590424,5.25800372 4.28590424,5.25800372 L3.69921291,7.87917171 L3.64883167,8.10147259 L3.55133823,8.82861394 C3.55133823,9.04430794 3.59325849,9.22036088 3.67671442,9.36920918 C3.94400414,9.84120988 4.70645291,9.91194194 5.13777006,9.91194194 C5.69350194,9.91194194 6.21481306,9.79263012 6.56709706,9.57479865 C7.17859441,9.20967335 7.33858371,8.63895871 7.48126641,8.13178629 L7.54741576,7.87159324 C7.54741576,7.87159324 8.13929912,5.45620904 8.23986924,5.14199534 C8.24371518,5.12450664 8.24525347,5.11537364 8.25044547,5.10701792 Z M10.2642909,7.05553153 C10.1216081,7.05553153 9.86085647,7.09050888 9.62664141,7.20651729 C9.54164718,7.25062771 9.46126794,7.30153924 9.37646594,7.35225653 L9.45299924,7.07302018 L9.411079,7.025995 C8.91438159,7.12762382 8.80323524,7.14122612 8.34441994,7.20651729 L8.30596094,7.23236171 C8.25269535,7.67871229 8.20539076,8.01430106 8.00790406,8.891651 C7.93271682,9.21499771 7.85464518,9.54145353 7.77638118,9.86402288 L7.79753359,9.90502418 C8.26769435,9.87995706 8.410377,9.87995706 8.81900341,9.88675818 L8.85207812,9.85042059 C8.90399771,9.58167753 8.910728,9.51871818 9.02572029,8.97443088 C9.07975512,8.71637529 9.19243982,8.14935271 9.24801306,7.94745535 C9.35012153,7.89965288 9.450884,7.85262771 9.54703135,7.85262771 C9.77605447,7.85262771 9.74817171,8.05452506 9.73932618,8.13497312 C9.72951912,8.27002476 9.64606318,8.71112876 9.56049206,9.08985629 L9.50338047,9.33430953 C9.46357547,9.51483182 9.41992453,9.69030176 9.38011953,9.86926953 L9.39742606,9.90502418 C9.86085647,9.87995706 10.0021931,9.87995706 10.3979357,9.88675818 L10.4444711,9.85042059 C10.5160047,9.43069171 10.5369648,9.31837535 10.6638794,8.70724229 L10.7277212,8.42645153 C10.8517514,7.87691759 10.9140549,7.59826424 10.8202151,7.37129976 C10.7209909,7.11693624 10.4829301,7.05553153 10.2642909,7.05553153 Z M12.5139858,7.63089035 C12.2676562,7.67869288 12.1105514,7.71056112 11.9544081,7.73115894 C11.7996108,7.75622612 11.6486594,7.77896141 11.4105984,7.81238424 L11.3917535,7.82967865 L11.3744471,7.84347529 C11.3496411,8.02263735 11.3323345,8.17750953 11.2994521,8.35958635 C11.2715694,8.54788135 11.2286876,8.76182653 11.1588846,9.06923906 C11.1048498,9.30455924 11.0769671,9.38656188 11.0461998,9.46934176 C11.0162019,9.55212159 10.9831272,9.63256965 10.922362,9.86400341 L10.9365919,9.88537859 L10.9485141,9.90500476 C11.1709992,9.89431718 11.3165663,9.88673876 11.4661716,9.88537859 C11.6155847,9.87993765 11.7703819,9.88537859 12.0099812,9.88673876 L12.0309414,9.86944435 L12.0534399,9.85040112 C12.0880529,9.64170265 12.0932449,9.58554441 12.1143973,9.48372129 C12.1353574,9.37451406 12.1715089,9.223334 12.2601567,8.81953924 C12.302077,8.629884 12.3488046,8.44081171 12.3922632,8.24727 C12.4374526,8.05450565 12.484757,7.86465606 12.529754,7.67500082 L12.5230237,7.65207118 L12.5139858,7.63089035 Z M12.5192355,6.85513035 C12.2954044,6.72163329 11.9025462,6.76399482 11.6381408,6.94840353 C11.3745048,7.12912006 11.3445068,7.38562106 11.5675687,7.520867 C11.7875539,7.65067206 12.1819505,7.61200265 12.4440481,7.42603935 C12.7071075,7.24143641 12.7399898,6.98726724 12.5192355,6.85513035 Z M13.8728944,9.94684165 C14.3257486,9.94684165 14.7899482,9.82072865 15.1393478,9.44647035 C15.4081759,9.14294424 15.5314368,8.69134706 15.5741264,8.50538388 C15.7131555,7.88900424 15.6048935,7.60121788 15.4689411,7.42594224 C15.2624165,7.15875371 14.8974411,7.07305906 14.5188126,7.07305906 C14.2911356,7.07305906 13.7488644,7.09579435 13.3252391,7.49045612 C13.0210286,7.77513329 12.8804612,8.16143935 12.7956592,8.53181118 C12.7100881,8.90917859 12.6116331,9.58851753 13.2298608,9.84132641 C13.4206172,9.92410629 13.6955988,9.94684165 13.8728944,9.94684165 Z M13.8375122,8.55998741 C13.9419284,8.09323341 14.0651892,7.70148641 14.3797835,7.70148641 C14.6263054,7.70148641 14.6441888,7.99296488 14.5345808,8.46127341 C14.5149668,8.56523406 14.4249728,8.95173441 14.3032502,9.11632259 C14.2182559,9.23777188 14.1176858,9.31141876 14.0065394,9.31141876 C13.9734646,9.31141876 13.7767471,9.31141876 13.7736704,9.01624829 C13.7721321,8.87050912 13.8015531,8.72166082 13.8375122,8.55998741 Z M16.7061656,9.88681653 L16.7415478,9.85047888 C16.7917368,9.58173582 16.8000055,9.51858212 16.9111519,8.97448918 C16.966725,8.71643365 17.0817172,8.149411 17.1357522,7.94751365 C17.2380529,7.89951688 17.3370848,7.85249171 17.4363088,7.85249171 C17.6637935,7.85249171 17.6361031,8.05438906 17.6270653,8.13483706 C17.6187965,8.27008306 17.5353407,8.71099271 17.4482311,9.08972024 L17.3941963,9.33417353 C17.3528529,9.51489006 17.3078559,9.69016576 17.2680509,9.86932782 L17.2853575,9.90508253 C17.7503262,9.88001529 17.8862785,9.88001529 18.2843288,9.88681653 L18.3324025,9.85047888 C18.4022055,9.43055571 18.4210504,9.31823929 18.5518108,8.70730065 L18.6141144,8.42631553 C18.7387213,7.87678159 18.8017939,7.59832259 18.7094925,7.37135806 C18.6073839,7.11699459 18.3677846,7.05558982 18.1522222,7.05558982 C18.0093472,7.05558982 17.7472495,7.09037288 17.5143805,7.20657565 C17.4311169,7.250686 17.3476609,7.30140324 17.2657434,7.35231482 L17.3370848,7.07307853 L17.2988181,7.025859 C16.8023131,7.12768212 16.6888591,7.14128441 16.2306206,7.20657565 L16.1954306,7.23242 C16.1398575,7.67877059 16.0946682,8.01416506 15.8971815,8.89170929 C15.8219943,9.215056 15.7439226,9.54151176 15.6658509,9.86408118 L15.6868111,9.90508253 C16.1577409,9.88001529 16.2983085,9.88001529 16.7061656,9.88681653 Z M20.1223782,9.90498529 C20.1516071,9.76080071 20.3252492,8.90618606 20.3267876,8.90618606 C20.3267876,8.90618606 20.4746622,8.27911888 20.4837002,8.25638359 C20.4837002,8.25638359 20.5302355,8.19109241 20.5767708,8.165248 L20.6452277,8.165248 C21.2911459,8.165248 22.0205199,8.165248 22.5922122,7.74027253 C22.9812246,7.44879412 23.2471682,7.01837771 23.3658141,6.49527118 C23.3965813,6.36702071 23.4192721,6.21448035 23.4192721,6.06194 C23.4192721,5.86159718 23.3794671,5.66339186 23.2644748,5.50851969 C22.9729559,5.09636925 22.3924181,5.08879081 21.7222708,5.0856817 C21.7201555,5.0856817 21.3919083,5.08879081 21.3919083,5.08879081 C20.5340814,5.09947835 20.190066,5.09636925 20.0487294,5.07888055 C20.0368071,5.14203419 20.0143086,5.25435054 20.0143086,5.25435054 C20.0143086,5.25435054 19.7070215,6.69347653 19.7070215,6.69580829 C19.7070215,6.69580829 18.9716864,9.75555406 18.9370732,9.89973871 C19.6860614,9.89060576 19.9931562,9.89060576 20.1223782,9.90498529 Z M20.6917631,7.34852559 C20.6917631,7.34852559 21.0184719,5.91231441 21.0169336,5.91775535 L21.0275096,5.84410848 L21.0321248,5.7879503 L21.1626929,5.80155261 C21.1626929,5.80155261 21.8364938,5.86004261 21.8522621,5.86159718 C22.1182056,5.96555782 22.2278136,6.23352359 22.1512804,6.58329765 C22.0814774,6.90295224 21.8762989,7.17169535 21.6126628,7.30150035 C21.3955619,7.41148488 21.1296182,7.42061788 20.8555982,7.42061788 L20.6783025,7.42061788 L20.6917631,7.34852559 Z M22.7259341,8.58658976 C22.6395938,8.95851612 22.5403696,9.63785512 23.1555205,9.87997653 C23.3516612,9.96431088 23.5274186,9.989378 23.7060605,9.98024506 C23.8947017,9.96994612 24.0694976,9.87434124 24.2314098,9.73676341 C24.2167955,9.79331024 24.2021811,9.84985706 24.1875666,9.90659818 L24.2154493,9.94293582 C24.6579196,9.92408688 24.7952181,9.92408688 25.2746089,9.92777894 L25.3180675,9.89435606 C25.3880629,9.47851359 25.4540199,9.07471888 25.6359308,8.27917718 C25.7245786,7.89811776 25.8130342,7.52075041 25.9039896,7.14124559 L25.8897599,7.099467 C25.3947931,7.19215712 25.2624944,7.21197771 24.7863725,7.28018365 L24.7502211,7.30991435 C24.7454137,7.34858388 24.7404141,7.38569876 24.7357989,7.42281371 C24.6617655,7.30194729 24.5544651,7.198764 24.3888992,7.13444441 C24.1771826,7.05030429 23.6799084,7.15873424 23.2524371,7.55203576 C22.9520727,7.83282665 22.8078517,8.21757806 22.7259341,8.58658976 Z M23.7654795,8.60932506 C23.871434,8.15092671 23.9931566,7.76306612 24.3085201,7.76306612 C24.5079296,7.76306612 24.6129226,7.94902929 24.5915779,8.26615782 C24.5746561,8.34524565 24.5563879,8.42860841 24.5346586,8.52285312 C24.5031224,8.65907071 24.4688938,8.79412229 24.4356269,8.92936829 C24.4017829,9.02186412 24.3623626,9.10911329 24.3190962,9.16721471 C24.2379478,9.28341735 24.0448839,9.35550971 23.9337375,9.35550971 C23.9022011,9.35550971 23.7075988,9.35550971 23.7008685,9.06558588 C23.6993301,8.92120694 23.7287513,8.77255294 23.7654795,8.60932506 Z M29.194057,7.09575553 L29.1557905,7.05164512 C28.6660156,7.15191371 28.5773676,7.16784782 28.127398,7.22925265 L28.0943232,7.26267541 C28.092785,7.26811635 28.0914388,7.27647212 28.0891313,7.28405059 L28.0875929,7.27647212 C27.7526155,8.05743988 27.7624225,7.88896535 27.4897485,8.50379041 C27.4882101,8.47580853 27.4882101,8.45831982 27.4866719,8.428589 L27.4184071,7.09575553 L27.3755254,7.05164512 C26.862483,7.15191371 26.8503684,7.16784782 26.3765541,7.22925265 L26.3396336,7.26267541 C26.3344415,7.27860965 26.3344415,7.29609829 26.3313649,7.31514159 L26.3344415,7.32194276 C26.3936683,7.62780076 26.3794385,7.55959482 26.4388576,8.042283 C26.466548,8.27915776 26.5034686,8.51739276 26.531159,8.75135276 C26.5778868,9.14290535 26.6040389,9.33566976 26.6611503,9.93320041 C26.3411718,10.4668002 26.2654076,10.6686976 25.9573515,11.1370062 L25.9594667,11.1416698 L25.7425582,11.4883348 C25.7177522,11.5248668 25.6952538,11.5499339 25.6637174,11.5606214 C25.6291044,11.5779158 25.5841074,11.5810249 25.5216115,11.5810249 L25.4014273,11.5810249 L25.2227855,12.1814704 L25.8356289,12.1921579 C26.1954123,12.1906034 26.4215511,12.0205743 26.5432736,11.7920552 L26.9286324,11.1247641 L26.9224789,11.1247641 L26.9630531,11.0777389 C27.2222665,10.5138254 29.194057,7.09575553 29.194057,7.09575553 Z M22.7259148,14.9817031 L22.4659322,14.9817031 L23.4281754,11.7655307 L23.7473846,11.7655307 L23.8487239,11.4342169 L23.8585309,11.8026456 C23.8466087,12.0303874 24.0239045,12.2322848 24.4896424,12.1988619 L25.02826,12.1988619 L25.2136322,11.5795675 L25.0109535,11.5795675 C24.8944229,11.5795675 24.8403881,11.5498367 24.8471185,11.4861001 L24.8373114,11.1112589 L23.8398784,11.1112589 L23.8398784,11.1132021 C23.5174002,11.1200032 22.5543879,11.1444874 22.359401,11.1969536 C22.1234554,11.2583583 21.8748181,11.4390749 21.8748181,11.4390749 L21.9725039,11.1073725 L21.0394897,11.1073725 L20.8450797,11.7655307 L19.869953,15.0308659 L19.6807349,15.0308659 L19.4951704,15.645691 L21.3535071,15.645691 L21.2912036,15.8506974 L22.2069112,15.8506974 L22.2676764,15.645691 L22.5245822,15.645691 L22.7259148,14.9817031 Z M21.9634661,12.4190252 C21.8140531,12.4608038 21.5359948,12.5874998 21.5359948,12.5874998 L21.7832859,11.7655307 L22.5245822,11.7655307 L22.3457481,12.3644216 C22.3457481,12.3644216 22.116725,12.3780239 21.9634661,12.4190252 Z M21.9776959,13.5932945 C21.9776959,13.5932945 21.7448269,13.622831 21.5915679,13.6578084 C21.4406165,13.7040564 21.1575587,13.8497955 21.1575587,13.8497955 L21.4129262,12.9944036 L22.1580684,12.9944036 L21.9776959,13.5932945 Z M21.5623392,14.9892816 L20.8187354,14.9892816 L21.0342978,14.2673869 L21.7755941,14.2673869 L21.5623392,14.9892816 Z M23.3531034,12.9944036 L24.4249545,12.9944036 L24.2709263,13.4984669 L23.1848456,13.4984669 L23.0217795,14.0495554 L23.9721002,14.0495554 L23.2525334,15.0734218 C23.2021521,15.1486232 23.1569628,15.1752449 23.1067739,15.1964256 C23.0563926,15.22227 22.9902433,15.2525838 22.9137099,15.2525838 L22.6500738,15.2525838 L22.4689321,15.8561384 L23.1585011,15.8561384 C23.5169385,15.8561384 23.7286551,15.6913559 23.8849908,15.4750789 L24.3784192,14.7926309 L24.4843736,15.4855722 C24.5068721,15.6153771 24.5991736,15.6913559 24.6616694,15.7208924 C24.7307032,15.7558698 24.8020446,15.8159144 24.9028071,15.824853 C25.0108766,15.8295166 25.0889483,15.8332088 25.1408679,15.8332088 L25.4796914,15.8332088 L25.6831392,15.1577561 L25.5494944,15.1577561 C25.4727686,15.1577561 25.3406622,15.1447368 25.3181638,15.1204469 C25.2956652,15.0909104 25.2956652,15.0454398 25.2835506,14.9762622 L25.1760579,14.2817664 L24.7358951,14.2817664 L24.9289592,14.0495554 L26.0129246,14.0495554 L26.1796442,13.4984669 L25.1760579,13.4984669 L25.3323935,12.9944036 L26.3329032,12.9944036 L26.5184676,12.3727774 L23.5355912,12.3727774 L23.3531034,12.9944036 Z M14.3002119,15.1296382 L14.5503874,14.288626 L15.5785876,14.288626 L15.7664595,13.6631134 L14.7372979,13.6631134 L14.8944028,13.1454478 L15.9001044,13.1454478 L16.0864381,12.5397556 L13.5700686,12.5397556 L13.3875809,13.1454478 L13.9592733,13.1454478 L13.8067836,13.6631134 L13.2335528,13.6631134 L13.0435657,14.2993135 L13.6150656,14.2993135 L13.2816265,15.4119836 C13.2366295,15.5592774 13.302779,15.6154355 13.3446992,15.6838358 C13.3875809,15.7504871 13.4310396,15.7945975 13.5287254,15.8196646 C13.6294878,15.8424 13.6985216,15.8560022 13.7923615,15.8560022 L14.9515144,15.8560022 L15.1580389,15.163061 L14.6442272,15.2343761 C14.5450032,15.2343761 14.270214,15.2223284 14.3002119,15.1296382 Z M14.4181463,11.1035833 L14.1575869,11.5794704 C14.1018214,11.6834309 14.0516325,11.7479449 14.0064432,11.7776756 C13.9666382,11.8027428 13.8877974,11.813236 13.7735742,11.813236 L13.6376218,11.813236 L13.4559033,12.4220372 L13.9074115,12.4220372 C14.1245122,12.4220372 14.2912317,12.3415892 14.3708419,12.3013651 C14.456413,12.2551172 14.4789114,12.2815446 14.5450608,12.2170308 L14.6975507,12.0835336 L16.1074558,12.0835336 L16.2945587,11.4496653 L15.2625126,11.4496653 L15.4426928,11.1035833 L14.4181463,11.1035833 Z M16.4996218,15.1418609 C16.4755849,15.1068834 16.4928915,15.0452844 16.5296198,14.9170339 L16.9149785,13.6281165 L18.2858479,13.6281165 C18.4856422,13.6252018 18.6298632,13.6228699 18.723703,13.6160688 C18.8244655,13.6053811 18.9340736,13.5690435 19.0534886,13.5037524 C19.1767496,13.4353521 19.2398222,13.3632598 19.2930879,13.2804799 C19.3525069,13.1978944 19.4478852,13.0171778 19.5298028,12.7385245 L20.0141933,11.1074114 L18.5915966,11.1157671 C18.5915966,11.1157671 18.1535491,11.1810582 17.9606775,11.2531506 C17.7660752,11.3335986 17.4880169,11.5582313 17.4880169,11.5582313 L17.6164698,11.1111034 L16.7376826,11.1111034 L15.5073808,15.2343568 C15.4637299,15.3944754 15.4345011,15.5106781 15.4276906,15.5804386 C15.4254632,15.6556401 15.5216106,15.7300642 15.5839142,15.7862224 C15.6575631,15.8423806 15.7664018,15.8332476 15.8708179,15.8423806 C15.9806182,15.8507364 16.1367616,15.8559829 16.3523239,15.8559829 L17.0276632,15.8559829 L17.2349569,15.148662 L16.6303822,15.2063748 C16.5657712,15.2063748 16.5190436,15.1713972 16.4996218,15.1418609 Z M17.1636156,12.7575676 L18.6035189,12.7575676 L18.5119866,13.0474915 C18.4991028,13.0542926 18.4683356,13.0331119 18.321807,13.0506006 L17.0749678,13.0506006 L17.1636156,12.7575676 Z M17.4520578,11.7851958 L18.9040755,11.7851958 L18.7996595,12.1343869 C18.7996595,12.1343869 18.1152825,12.1275858 18.0056745,12.1479892 C17.5233991,12.2323236 17.2416873,12.492711 17.2416873,12.492711 L17.4520578,11.7851958 Z M18.5442151,14.0183671 C18.5322929,14.0617002 18.513448,14.0881276 18.4871036,14.1079481 C18.4578747,14.1269914 18.4105703,14.1337925 18.3399981,14.1337925 L18.1348195,14.1337925 L18.1469341,13.7807151 L17.2935299,13.7807151 L17.2589169,15.5068501 C17.2575709,15.6314085 17.2694931,15.7035009 17.3596794,15.7612136 C17.4498656,15.8333059 17.7277315,15.8424389 18.1017448,15.8424389 L18.6365166,15.8424389 L18.8295806,15.1963285 L18.3640349,15.2221729 L18.2092377,15.2313059 C18.1880852,15.2221729 18.1678942,15.2138171 18.1453958,15.1910819 C18.1257816,15.1714556 18.0927071,15.1835035 18.0980913,15.058945 L18.1017448,14.6164809 L18.5899814,14.5960774 C18.8536175,14.5960774 18.9663022,14.509411 19.0624495,14.4268255 C19.1541741,14.3477378 19.1841721,14.2567965 19.2187852,14.1337925 L19.3007028,13.7420456 L18.6297862,13.7420456 L18.5442151,14.0183671 Z" id="Shape" fill="#FEFEFE"></path>
            </g>
        </g>
    </g>
</svg>