<svg width="44" height="28" viewBox="0 0 44 28" fill="none" xmlns="http://www.w3.org/2000/svg">
<rect x="0.5" y="0.5" width="43" height="27" rx="3.5" fill="white"/>
<g clip-path="url(#clip0_2_465)">
<path d="M17.2889 9.19427L12.7066 19.8336H9.71705L7.4621 11.3436C7.3252 10.8207 7.20689 10.6291 6.78999 10.4089C6.11022 10.0499 4.98767 9.71334 4.00002 9.50418L4.06801 9.19427H8.88051C9.49374 9.19427 10.0452 9.59164 10.1844 10.2792L11.3754 16.435L14.3186 9.19356L17.2889 9.19427ZM29.0026 16.36C29.0146 13.5519 25.0126 13.3974 25.0401 12.1428C25.0487 11.7611 25.4229 11.3553 26.2398 11.2516C26.645 11.1999 27.7616 11.1604 29.0288 11.7277L29.5256 9.47154C28.8451 9.23134 27.9695 9.00002 26.8802 9.00002C24.0847 9.00002 22.1174 10.4462 22.1008 12.517C22.0826 14.0486 23.5045 14.9033 24.5766 15.4121C25.6789 15.9335 26.0486 16.2682 26.0445 16.7346C26.0365 17.4483 25.1654 17.7635 24.3511 17.7758C22.9292 17.7971 22.1047 17.4015 21.447 17.1038L20.9344 19.4346C21.5952 19.7298 22.8149 19.9872 24.0796 20C27.051 20 28.9944 18.5718 29.0035 16.36M36.3852 19.8336H39.0009L36.7164 9.19427H34.3025C34.0447 9.19211 33.7922 9.26536 33.5777 9.40454C33.3631 9.54371 33.1965 9.7424 33.0994 9.97482L28.8553 19.8336H31.825L32.4144 18.2445H36.0429L36.3852 19.8336ZM33.2296 16.0639L34.7182 12.069L35.5749 16.0639H33.2296ZM21.3298 9.19427L18.9911 19.8336H16.1631L18.5026 9.19427H21.3298Z" fill="#1434CB"/>
</g>
<rect x="0.5" y="0.5" width="43" height="27" rx="3.5" stroke="#DFE5EB"/>
<defs>
<clipPath id="clip0_2_465">
<rect width="35" height="11" fill="white" transform="translate(4 9)"/>
</clipPath>
</defs>
</svg>
