<?xml version="1.0" encoding="UTF-8"?>
<svg version="1.1" xmlns="http://www.w3.org/2000/svg" width="192" height="192">
<path d="M0 0 C63.36 0 126.72 0 192 0 C192 63.36 192 126.72 192 192 C128.64 192 65.28 192 0 192 C0 128.64 0 65.28 0 0 Z " fill="#010101" transform="translate(0,0)"/>
<path d="M0 0 C3.39117528 2.04701806 6.65857454 4.2122376 9.89453125 6.49609375 C11.33713843 7.50144724 12.77984949 8.50665169 14.22265625 9.51171875 C14.95291016 10.02283203 15.68316406 10.53394531 16.43554688 11.06054688 C19.03107388 12.87198383 21.64049272 14.66244467 24.25219727 16.45043945 C34.49420758 23.46299896 44.68118373 30.55595228 54.85839844 37.66210938 C56.73510586 38.96887374 58.61624379 40.26929049 60.50097656 41.56445312 C61.41717773 42.19673828 62.33337891 42.82902344 63.27734375 43.48046875 C64.10508301 44.04862305 64.93282227 44.61677734 65.78564453 45.20214844 C66.67485596 45.87358887 66.67485596 45.87358887 67.58203125 46.55859375 C67.58203125 46.88859375 67.58203125 47.21859375 67.58203125 47.55859375 C22.04203125 47.55859375 -23.49796875 47.55859375 -70.41796875 47.55859375 C-66.66927303 43.80989803 -63.40628652 41.03176563 -59.04296875 38.24609375 C-52.33161152 33.86672077 -45.73674227 29.3363276 -39.16796875 24.74609375 C-31.75118479 19.5695862 -24.32175515 14.41350141 -16.85546875 9.30859375 C-16.08879883 8.78418701 -15.32212891 8.25978027 -14.53222656 7.71948242 C-13.12674502 6.75978337 -11.71765182 5.80534191 -10.30419922 4.85742188 C-9.09056596 4.02173343 -7.89907947 3.15241465 -6.73876953 2.24414062 C-3.05989192 -0.55859093 -3.05989192 -0.55859093 0 0 Z " fill="#FDFDFD" transform="translate(97.41796875,27.44140625)"/>
<path d="M0 0 C39.6 0 79.2 0 120 0 C120 7.26 120 14.52 120 22 C80.4 22 40.8 22 0 22 C0 14.74 0 7.48 0 0 Z " fill="#FEFEFE" transform="translate(36,143)"/>
<path d="M0 0 C4.95 0 9.9 0 15 0 C15 15.84 15 31.68 15 48 C10.05 48 5.1 48 0 48 C0 32.16 0 16.32 0 0 Z " fill="#F6F6F6" transform="translate(88,85)"/>
<path d="M0 0 C4.95 0 9.9 0 15 0 C15 15.84 15 31.68 15 48 C10.05 48 5.1 48 0 48 C0 32.16 0 16.32 0 0 Z " fill="#F8F8F8" transform="translate(51,85)"/>
<path d="M0 0 C4.62 0 9.24 0 14 0 C14 15.84 14 31.68 14 48 C9.38 48 4.76 48 0 48 C0 32.16 0 16.32 0 0 Z " fill="#FEFEFE" transform="translate(125,85)"/>
</svg>
